<svg id="visual" viewBox="0 0 900 600" width="900" height="600" xmlns="http://www.w3.org/2000/svg" xmlns:xlink="http://www.w3.org/1999/xlink" version="1.1"><path d="M0 73L13.7 78C27.3 83 54.7 93 82 94C109.3 95 136.7 87 163.8 87C191 87 218 95 245.2 90C272.3 85 299.7 67 327 65C354.3 63 381.7 77 409 90C436.3 103 463.7 115 491 113C518.3 111 545.7 95 573 86C600.3 77 627.7 75 654.8 77C682 79 709 85 736.2 80C763.3 75 790.7 59 818 53C845.3 47 872.7 51 886.3 53L900 55L900 0L886.3 0C872.7 0 845.3 0 818 0C790.7 0 763.3 0 736.2 0C709 0 682 0 654.8 0C627.7 0 600.3 0 573 0C545.7 0 518.3 0 491 0C463.7 0 436.3 0 409 0C381.7 0 354.3 0 327 0C299.7 0 272.3 0 245.2 0C218 0 191 0 163.8 0C136.7 0 109.3 0 82 0C54.7 0 27.3 0 13.7 0L0 0Z" fill="#7141ad"></path><path d="M0 133L13.7 135C27.3 137 54.7 141 82 146C109.3 151 136.7 157 163.8 161C191 165 218 167 245.2 159C272.3 151 299.7 133 327 131C354.3 129 381.7 143 409 151C436.3 159 463.7 161 491 159C518.3 157 545.7 151 573 146C600.3 141 627.7 137 654.8 138C682 139 709 145 736.2 146C763.3 147 790.7 143 818 136C845.3 129 872.7 119 886.3 114L900 109L900 53L886.3 51C872.7 49 845.3 45 818 51C790.7 57 763.3 73 736.2 78C709 83 682 77 654.8 75C627.7 73 600.3 75 573 84C545.7 93 518.3 109 491 111C463.7 113 436.3 101 409 88C381.7 75 354.3 61 327 63C299.7 65 272.3 83 245.2 88C218 93 191 85 163.8 85C136.7 85 109.3 93 82 92C54.7 91 27.3 81 13.7 76L0 71Z" fill="#5e2c9c"></path><path d="M0 283L13.7 288C27.3 293 54.7 303 82 319C109.3 335 136.7 357 163.8 364C191 371 218 363 245.2 334C272.3 305 299.7 255 327 248C354.3 241 381.7 277 409 293C436.3 309 463.7 305 491 324C518.3 343 545.7 385 573 395C600.3 405 627.7 383 654.8 367C682 351 709 341 736.2 327C763.3 313 790.7 295 818 289C845.3 283 872.7 289 886.3 292L900 295L900 107L886.3 112C872.7 117 845.3 127 818 134C790.7 141 763.3 145 736.2 144C709 143 682 137 654.8 136C627.7 135 600.3 139 573 144C545.7 149 518.3 155 491 157C463.7 159 436.3 157 409 149C381.7 141 354.3 127 327 129C299.7 131 272.3 149 245.2 157C218 165 191 163 163.8 159C136.7 155 109.3 149 82 144C54.7 139 27.3 135 13.7 133L0 131Z" fill="#4a148c"></path><path d="M0 529L13.7 518C27.3 507 54.7 485 82 471C109.3 457 136.7 451 163.8 457C191 463 218 481 245.2 479C272.3 477 299.7 455 327 461C354.3 467 381.7 501 409 516C436.3 531 463.7 527 491 529C518.3 531 545.7 539 573 542C600.3 545 627.7 543 654.8 537C682 531 709 521 736.2 504C763.3 487 790.7 463 818 458C845.3 453 872.7 467 886.3 474L900 481L900 293L886.3 290C872.7 287 845.3 281 818 287C790.7 293 763.3 311 736.2 325C709 339 682 349 654.8 365C627.7 381 600.3 403 573 393C545.7 383 518.3 341 491 322C463.7 303 436.3 307 409 291C381.7 275 354.3 239 327 246C299.7 253 272.3 303 245.2 332C218 361 191 369 163.8 362C136.7 355 109.3 333 82 317C54.7 301 27.3 291 13.7 286L0 281Z" fill="#3d157a"></path><path d="M0 601L13.7 601C27.3 601 54.7 601 82 601C109.3 601 136.7 601 163.8 601C191 601 218 601 245.2 601C272.3 601 299.7 601 327 601C354.3 601 381.7 601 409 601C436.3 601 463.7 601 491 601C518.3 601 545.7 601 573 601C600.3 601 627.7 601 654.8 601C682 601 709 601 736.2 601C763.3 601 790.7 601 818 601C845.3 601 872.7 601 886.3 601L900 601L900 479L886.3 472C872.7 465 845.3 451 818 456C790.7 461 763.3 485 736.2 502C709 519 682 529 654.8 535C627.7 541 600.3 543 573 540C545.7 537 518.3 529 491 527C463.7 525 436.3 529 409 514C381.7 499 354.3 465 327 459C299.7 453 272.3 475 245.2 477C218 479 191 461 163.8 455C136.7 449 109.3 455 82 469C54.7 483 27.3 505 13.7 516L0 527Z" fill="#321568"></path></svg>